<!--?xml version="1.0" standalone="no"?-->
              <svg id="sw-js-blob-svg" viewBox="0 0 100 100" xmlns="http://www.w3.org/2000/svg" version="1.1">
                    <defs> 
                        <linearGradient id="sw-gradient" x1="0" x2="1" y1="1" y2="0">
                            <stop id="stop1" stop-color="rgba(225.223, 55, 248, 1)" offset="0%"></stop>
                            <stop id="stop2" stop-color="rgba(149.758, 31, 251, 1)" offset="100%"></stop>
                        </linearGradient>
                    </defs>
                <path fill="url(#sw-gradient)" d="M12.8,-22.9C16.6,-17.5,19.6,-13.9,21.9,-9.7C24.3,-5.6,25.9,-0.8,25.5,3.8C25,8.4,22.4,12.8,19.8,19C17.2,25.2,14.7,33.2,9.5,36.6C4.4,39.9,-3.3,38.7,-10.5,36.3C-17.7,34,-24.5,30.5,-29,25.2C-33.5,19.9,-35.7,12.7,-37.4,5C-39.1,-2.7,-40.3,-10.8,-38.4,-18.7C-36.6,-26.5,-31.7,-34.1,-24.8,-38C-17.8,-42,-8.9,-42.3,-2.2,-38.9C4.5,-35.5,9,-28.3,12.8,-22.9Z" width="100%" height="100%" transform="translate(50 50)" stroke-width="0" style="transition: all 0.3s ease 0s;"></path>
              </svg>